<?xml version="1.0" encoding="UTF-8"?>
<svg width="13.191mm" height="8.3167mm" version="1.1" viewBox="0 0 13.191 8.3167" xmlns="http://www.w3.org/2000/svg" xmlns:cc="http://creativecommons.org/ns#" xmlns:dc="http://purl.org/dc/elements/1.1/" xmlns:rdf="http://www.w3.org/1999/02/22-rdf-syntax-ns#">
 <metadata>
  <rdf:RDF>
   <cc:Work rdf:about="">
    <dc:format>image/svg+xml</dc:format>
    <dc:type rdf:resource="http://purl.org/dc/dcmitype/StillImage"/>
    <dc:title/>
   </cc:Work>
  </rdf:RDF>
 </metadata>
 <g transform="translate(-45.437 -31.599)">
  <g transform="matrix(.1966 0 0 .1966 36.504 25.386)" fill="none" stroke="#fff" stroke-width="6.35">
   <path d="m48.298 49.873c15.653-22.383 27.917-14.684 25.224-9.5023"/>
   <ellipse cx="63.185" cy="58.383" rx="12.677" ry="12.343"/>
   <path d="m75.761 56.828c-0.1203-4.0536 6.6072-4.0243 6.3454 0"/>
   <ellipse transform="scale(-1,1)" cx="-94.683" cy="58.383" rx="12.677" ry="12.343"/>
   <path d="m48.666 49.343c0.09088-0.16078 4.5231-0.20133 4.6169-0.04223 0.0938 0.15909-2.0872 4.0178-2.2719 4.0195-0.18468 0.0017-2.4359-3.8165-2.345-3.9773z"/>
   <path transform="scale(-1,1)" d="m-109.3 49.343c0.0909-0.16078 4.5231-0.20133 4.6169-0.04223 0.0938 0.15909-2.0872 4.0178-2.2719 4.0195-0.18468 0.0017-2.4359-3.8165-2.345-3.9773z"/>
   <path d="m109.57 49.89c-15.719-22.373-28.034-14.676-25.33-9.4963"/>
  </g>
 </g>
</svg>
